<?xml version="1.0" encoding="UTF-8"?><svg id="Layer_2" xmlns="http://www.w3.org/2000/svg" xmlns:xlink="http://www.w3.org/1999/xlink" viewBox="0 0 741.38 147.94"><defs><style>.cls-1,.cls-2,.cls-3{fill:#fff;}.cls-2{stroke:url(#linear-gradient);}.cls-2,.cls-3{stroke-miterlimit:10;}.cls-3{stroke:url(#linear-gradient-2);}.cls-4{fill:none;}</style><linearGradient id="linear-gradient" x1="545.55" y1="96.78" x2="581.88" y2="96.78" gradientUnits="userSpaceOnUse"><stop offset="0" stop-color="#ff5450"/><stop offset=".14" stop-color="#ffef2a"/><stop offset=".32" stop-color="#daff36"/><stop offset=".5" stop-color="#18ff5e"/><stop offset=".65" stop-color="#36ddff"/><stop offset=".8" stop-color="#456dff"/><stop offset="1" stop-color="#ab40ff"/></linearGradient><linearGradient id="linear-gradient-2" x1="543.64" y1="23.99" x2="583.79" y2="23.99" xlink:href="#linear-gradient"/></defs><g id="Layer_1-2"><g><rect class="cls-4" y=".34" width="741.38" height="147.6"/><path class="cls-1" d="M64.68,1.86c13.44-.45,26.57,4.12,36.82,12.83,4.71,4.06,8.5,9.09,11.09,14.74,2.59,5.65,3.94,11.8,3.94,18.02s-1.34,12.37-3.94,18.02c-2.59,5.65-6.38,10.68-11.09,14.74-10.29,8.64-23.39,13.21-36.82,12.83h-27.36v51.85H.17V1.86H64.68Zm0,59.45c3.87,.13,7.63-1.26,10.47-3.89,1.34-1.29,2.4-2.84,3.13-4.55,.73-1.71,1.1-3.55,1.1-5.41s-.37-3.7-1.1-5.41c-.73-1.71-1.79-3.26-3.13-4.55-2.88-2.56-6.62-3.95-10.47-3.88h-27.36v27.7h27.36Z"/><path class="cls-1" d="M173.46,109.95h48.8v34.96h-84.44V3.39h36.14l-.51,106.56Z"/><path class="cls-1" d="M345.02,134.43c-13.17,8.81-28.66,13.51-44.5,13.51s-31.33-4.7-44.5-13.51c-5.47-4.22-9.86-9.68-12.8-15.94-2.94-6.26-4.34-13.12-4.09-20.03V3.39h38.33V94.92c0,11.99,7.26,17.9,21.79,17.9s21.95-5.91,21.95-17.9V3.39h40.7V98.46c.25,6.91-1.15,13.77-4.09,20.03-2.93,6.26-7.33,11.72-12.8,15.94Z"/><path class="cls-1" d="M472.19,3.39h40.53V144.91h-31.41l-56.07-71.27v71.27h-40.53V3.39h31.58l55.9,71.1V3.39Z"/><path class="cls-1" d="M680.07,147.6c-19.58,0-38.35-7.78-52.19-21.62-13.84-13.84-21.61-32.61-21.61-52.18s7.77-38.34,21.61-52.18C641.72,7.78,660.49,0,680.07,0c12.47-.08,24.74,3.06,35.63,9.12,10.58,5.73,19.45,14.18,25.67,24.49l-31.41,17.9c-2.78-5.01-6.94-9.11-11.99-11.82-5.51-2.93-11.66-4.44-17.9-4.39-5.05-.22-10.09,.62-14.8,2.45-4.71,1.83-8.99,4.62-12.56,8.19-6.73,7.72-10.44,17.62-10.44,27.87s3.71,20.14,10.44,27.87c3.57,3.57,7.85,6.36,12.56,8.19,4.71,1.83,9.75,2.66,14.8,2.45,6.24,.05,12.39-1.46,17.9-4.39,5.14-2.74,9.32-6.98,11.99-12.16l31.41,18.24c-6.2,10.37-15.06,18.88-25.67,24.66-10.92,5.97-23.19,9.06-35.63,8.95h0Z"/><rect class="cls-2" x="546.05" y="49.04" width="35.33" height="95.49"/><path class="cls-3" d="M563.81,43.47c-5.35,0-9.96-1.94-13.85-5.82-3.88-3.88-5.82-8.43-5.82-13.65s1.94-9.77,5.82-13.66c3.88-3.88,8.5-5.82,13.85-5.82s9.77,1.94,13.65,5.82c3.88,3.89,5.83,8.44,5.83,13.66s-1.94,9.77-5.83,13.65c-3.88,3.89-8.44,5.82-13.65,5.82Z"/></g></g></svg>